<svg width="137" height="122" viewBox="0 0 137 122" fill="none" xmlns="http://www.w3.org/2000/svg">
<rect width="137" height="122" />
<g id="Vector" filter="url(#filter0_d_0_1)">
<path d="M26.3023 56.6624C28.6457 47.6214 34.073 39.5926 41.7199 33.8549C49.367 28.1171 58.7941 25 68.5 25C78.2059 25 87.633 28.1171 95.2801 33.8549C102.927 39.5926 108.354 47.6214 110.698 56.6624H106.886C100.456 56.5716 94.1582 58.4162 88.8762 61.9371C88.5713 62.149 88.253 62.3426 87.9233 62.5164H87.4786C87.1489 62.3426 86.8307 62.149 86.5257 61.9371C81.1971 58.4976 74.9213 56.6606 68.5 56.6606C62.0787 56.6606 55.8029 58.4976 50.4743 61.9371C50.1693 62.149 49.8511 62.3426 49.5214 62.5164H49.0767C48.747 62.3426 48.4287 62.149 48.1238 61.9371C42.8418 58.4162 36.5438 56.5716 30.1139 56.6624H26.3023ZM100.025 75.7793C101.982 74.3167 104.407 73.5515 106.886 73.6146H112V63.8274H106.886C102.519 63.7768 98.2525 65.0815 94.7207 67.5472C92.7333 68.9536 90.3291 69.7125 87.8598 69.7125C85.3905 69.7125 82.9863 68.9536 80.9989 67.5472C77.3776 65.1275 73.0711 63.8302 68.6588 63.8302C64.2466 63.8302 59.9401 65.1275 56.3187 67.5472C54.3313 68.9536 51.9271 69.7125 49.4578 69.7125C46.9885 69.7125 44.5844 68.9536 42.5969 67.5472C39.0216 65.0498 34.6936 63.7436 30.2727 63.8274H25V73.6146H30.1139C32.5931 73.5515 35.0182 74.3167 36.9748 75.7793C40.5895 78.2008 44.8912 79.499 49.299 79.499C53.7068 79.499 58.0085 78.2008 61.6232 75.7793C63.5824 74.3213 66.0056 73.5566 68.4841 73.6146C70.9642 73.5463 73.3909 74.3122 75.345 75.7793C78.9664 78.1993 83.2729 79.4963 87.6851 79.4963C92.0974 79.4963 96.4039 78.1993 100.025 75.7793ZM100.025 93.2803C101.982 91.8177 104.407 91.0524 106.886 91.1155H112V81.3284H106.886C102.519 81.2778 98.2525 82.5824 94.7207 85.0481C92.7333 86.4546 90.3291 87.2135 87.8598 87.2135C85.3905 87.2135 82.9863 86.4546 80.9989 85.0481C77.3776 82.6285 73.0711 81.3315 68.6588 81.3315C64.2466 81.3315 59.9401 82.6285 56.3187 85.0481C54.3313 86.4546 51.9271 87.2135 49.4578 87.2135C46.9885 87.2135 44.5844 86.4546 42.5969 85.0481C39.0216 82.551 34.6936 81.2446 30.2727 81.3284H25V91.1155H30.1139C32.5931 91.0524 35.0182 91.8177 36.9748 93.2803C40.5895 95.7018 44.8912 97 49.299 97C53.7068 97 58.0085 95.7018 61.6232 93.2803C63.5824 91.8223 66.0056 91.0576 68.4841 91.1155C70.9642 91.0472 73.3909 91.8131 75.345 93.2803C78.9664 95.7002 83.2729 96.9973 87.6851 96.9973C92.0974 96.9973 96.4039 95.7002 100.025 93.2803Z" fill="#F9B546"/>
</g>
<defs>
<filter id="filter0_d_0_1" x="0" y="0" width="137" height="122" filterUnits="userSpaceOnUse" color-interpolation-filters="sRGB">
<feFlood flood-opacity="0" result="BackgroundImageFix"/>
<feColorMatrix in="SourceAlpha" type="matrix" values="0 0 0 0 0 0 0 0 0 0 0 0 0 0 0 0 0 0 127 0" result="hardAlpha"/>
<feOffset/>
<feGaussianBlur stdDeviation="12.5"/>
<feComposite in2="hardAlpha" operator="out"/>
<feColorMatrix type="matrix" values="0 0 0 0 0.0509804 0 0 0 0 0.12549 0 0 0 0 0.376471 0 0 0 1 0"/>
<feBlend mode="normal" in2="BackgroundImageFix" result="effect1_dropShadow_0_1"/>
<feBlend mode="normal" in="SourceGraphic" in2="effect1_dropShadow_0_1" result="shape"/>
</filter>
</defs>
</svg>
