<svg width="40" height="21" viewBox="0 0 40 21" fill="none" xmlns="http://www.w3.org/2000/svg">
<g clip-path="url(#clip0_1_211)">
<path d="M39.9979 1.73269C39.8894 0.84513 39.2307 0.137725 38.3918 0H1.62415C0.705284 0.150941 0.00205231 0.984942 0.00205231 1.99005V18.1449C0.00205231 19.2578 0.862485 20.16 1.92464 20.16H38.0913C39.0693 20.16 39.8769 19.3942 39.9979 18.403V1.73269Z" fill="#F6C700"/>
<path d="M4.82592 4.05109H7.99985V16.269H4.82592V4.05109Z" fill="black"/>
<path d="M13.9971 9.679C13.7245 7.81693 13.5728 6.78191 13.5429 6.57532C13.4101 5.57856 13.2835 4.71117 13.1624 3.97107H9.04739V16.1889H11.8276L11.8374 8.1216L13.0073 16.1889H14.9876L16.0971 7.94214L16.1075 16.1889H18.8787V3.97107H14.7324L13.9971 9.679Z" fill="black"/>
<path d="M24.1185 6.51272C24.1533 6.66853 24.1714 7.02188 24.1714 7.57417V12.3111C24.1714 13.1242 24.1185 13.6222 24.0135 13.8059C23.9078 13.9895 23.6268 14.0806 23.1711 14.0806V6.06059C23.5169 6.06059 23.7527 6.09746 23.8779 6.1698C24.0031 6.24283 24.0838 6.35691 24.1185 6.51272ZM25.5521 16.0644C25.9298 15.9817 26.247 15.8356 26.5044 15.6276C26.761 15.4189 26.9412 15.1303 27.0441 14.7609C27.1478 14.3923 27.209 13.6598 27.209 12.5643V8.27393C27.209 7.11787 27.1638 6.343 27.0935 5.9493C27.0226 5.55491 26.8466 5.19668 26.5649 4.87532C26.2825 4.55397 25.8707 4.32303 25.3295 4.18253C24.7877 4.04202 23.9043 3.97107 22.3678 3.97107H20V16.1889H23.8452C24.7313 16.1611 25.3003 16.1201 25.5521 16.0644Z" fill="black"/>
<path d="M32.3299 14.2385C32.2714 14.3936 32.0155 14.4722 31.8221 14.4722C31.6329 14.4722 31.507 14.3971 31.443 14.2462C31.379 14.0959 31.3477 13.753 31.3477 13.216V9.98712C31.3477 9.43066 31.3755 9.08356 31.4319 8.94514C31.4875 8.80811 31.6099 8.73855 31.7991 8.73855C31.9925 8.73855 32.2519 8.81716 32.3187 8.97505C32.3848 9.13295 32.4182 9.47031 32.4182 9.98712V13.1179C32.398 13.7613 32.3688 14.1349 32.3299 14.2385ZM28.2899 16.0825H31.1474C31.2663 15.6158 31.3317 15.3563 31.3449 15.3041C31.6037 15.6171 31.8882 15.8523 32.2005 16.0081C32.5114 16.1646 32.9767 16.2425 33.3371 16.2425C33.8386 16.2425 34.2712 16.111 34.6364 15.8474C35.0009 15.5845 35.2332 15.2728 35.332 14.9146C35.4308 14.5557 35.4801 14.0104 35.4801 13.2772V9.8494C35.4801 9.11208 35.4634 8.63074 35.4308 8.40468C35.3981 8.17861 35.3007 7.94838 35.1386 7.71257C34.9765 7.47677 34.7407 7.29383 34.4319 7.16307C34.1231 7.0323 33.7586 6.96691 33.3384 6.96691C32.9733 6.96691 32.5058 7.03995 32.1942 7.18393C31.8833 7.32792 31.6009 7.54633 31.3477 7.83917V3.86462H28.2899V16.0825Z" fill="black"/>
</g>
<defs>
<clipPath id="clip0_1_211">
<rect width="40" height="20.16" fill="white"/>
</clipPath>
</defs>
</svg>
