<svg width="210" height="80" viewBox="0 0 210 80" fill="none" xmlns="http://www.w3.org/2000/svg">
<g filter="url(#filter0_d_1_79)">
<path d="M25.5037 38.2521C26.4101 34.609 28.5093 31.3738 31.4671 29.0618C34.4249 26.7498 38.0711 25.4938 41.8253 25.4938C45.5794 25.4938 49.2257 26.7498 52.1835 29.0618C55.1413 31.3738 57.2404 34.609 58.1469 38.2521H56.6726C54.1856 38.2155 51.7496 38.9588 49.7066 40.3775C49.5886 40.4629 49.4655 40.5409 49.338 40.611H49.166C49.0385 40.5409 48.9154 40.4629 48.7974 40.3775C46.7364 38.9916 44.309 38.2514 41.8253 38.2514C39.3416 38.2514 36.9142 38.9916 34.8531 40.3775C34.7352 40.4629 34.6121 40.5409 34.4846 40.611H34.3126C34.185 40.5409 34.0619 40.4629 33.944 40.3775C31.901 38.9588 29.465 38.2155 26.978 38.2521H25.5037ZM54.0189 45.9553C54.7757 45.3659 55.7137 45.0575 56.6726 45.083H58.6506V41.1393H56.6726C54.9835 41.1189 53.3332 41.6446 51.9671 42.6381C51.1984 43.2049 50.2685 43.5107 49.3134 43.5107C48.3583 43.5107 47.4284 43.2049 46.6597 42.6381C45.259 41.6631 43.5933 41.1404 41.8867 41.1404C40.1801 41.1404 38.5144 41.6631 37.1137 42.6381C36.345 43.2049 35.4151 43.5107 34.46 43.5107C33.5049 43.5107 32.575 43.2049 31.8063 42.6381C30.4234 41.6318 28.7494 41.1055 27.0394 41.1393H25V45.083H26.978C27.9369 45.0575 28.8749 45.3659 29.6317 45.9553C31.0298 46.931 32.6937 47.4541 34.3986 47.4541C36.1035 47.4541 37.7673 46.931 39.1654 45.9553C39.9232 45.3678 40.8605 45.0596 41.8191 45.083C42.7784 45.0555 43.717 45.3641 44.4729 45.9553C45.8736 46.9304 47.5392 47.453 49.2459 47.453C50.9525 47.453 52.6182 46.9304 54.0189 45.9553ZM54.0189 53.0073C54.7757 52.4179 55.7137 52.1095 56.6726 52.135H58.6506V48.1913H56.6726C54.9835 48.1709 53.3332 48.6966 51.9671 49.6901C51.1984 50.2569 50.2685 50.5627 49.3134 50.5627C48.3583 50.5627 47.4284 50.2569 46.6597 49.6901C45.259 48.7151 43.5933 48.1925 41.8867 48.1925C40.1801 48.1925 38.5144 48.7151 37.1137 49.6901C36.345 50.2569 35.4151 50.5627 34.46 50.5627C33.5049 50.5627 32.575 50.2569 31.8063 49.6901C30.4234 48.6839 28.7494 48.1575 27.0394 48.1913H25V52.135H26.978C27.9369 52.1095 28.8749 52.4179 29.6317 53.0073C31.0298 53.983 32.6937 54.5061 34.3986 54.5061C36.1035 54.5061 37.7673 53.983 39.1654 53.0073C39.9232 52.4198 40.8605 52.1116 41.8191 52.135C42.7784 52.1075 43.717 52.4161 44.4729 53.0073C45.8736 53.9824 47.5392 54.505 49.2459 54.505C50.9525 54.505 52.6182 53.9824 54.0189 53.0073Z" fill="#F9B546"/>
</g>
<path d="M94.6986 31.248L90.0186 48H86.0586L82.9146 36.072L79.6266 48L75.6906 48.024L71.1786 31.248H74.7786L77.7306 44.256L81.1386 31.248H84.8826L88.0986 44.184L91.0746 31.248H94.6986ZM107.165 44.808H100.493L99.3886 48H95.8606L101.885 31.224H105.797L111.821 48H108.269L107.165 44.808ZM106.253 42.12L103.829 35.112L101.405 42.12H106.253ZM125.472 31.248V33.96H121.008V48H117.648V33.96H113.184V31.248H125.472ZM127.108 39.6C127.108 37.952 127.476 36.48 128.212 35.184C128.964 33.872 129.98 32.856 131.26 32.136C132.556 31.4 134.004 31.032 135.604 31.032C137.476 31.032 139.116 31.512 140.524 32.472C141.932 33.432 142.916 34.76 143.476 36.456H139.612C139.228 35.656 138.684 35.056 137.98 34.656C137.292 34.256 136.492 34.056 135.58 34.056C134.604 34.056 133.732 34.288 132.964 34.752C132.212 35.2 131.62 35.84 131.188 36.672C130.772 37.504 130.564 38.48 130.564 39.6C130.564 40.704 130.772 41.68 131.188 42.528C131.62 43.36 132.212 44.008 132.964 44.472C133.732 44.92 134.604 45.144 135.58 45.144C136.492 45.144 137.292 44.944 137.98 44.544C138.684 44.128 139.228 43.52 139.612 42.72H143.476C142.916 44.432 141.932 45.768 140.524 46.728C139.132 47.672 137.492 48.144 135.604 48.144C134.004 48.144 132.556 47.784 131.26 47.064C129.98 46.328 128.964 45.312 128.212 44.016C127.476 42.72 127.108 41.248 127.108 39.6ZM160.242 31.248V48H156.882V40.872H149.706V48H146.346V31.248H149.706V38.136H156.882V31.248H160.242ZM176.869 31.248L171.205 42.168V48H167.845V42.168L162.157 31.248H165.949L169.549 38.904L173.125 31.248H176.869ZM182.119 31.248V41.616C182.119 42.752 182.415 43.624 183.007 44.232C183.599 44.824 184.431 45.12 185.503 45.12C186.591 45.12 187.431 44.824 188.023 44.232C188.615 43.624 188.911 42.752 188.911 41.616V31.248H192.295V41.592C192.295 43.016 191.983 44.224 191.359 45.216C190.751 46.192 189.927 46.928 188.887 47.424C187.863 47.92 186.719 48.168 185.455 48.168C184.207 48.168 183.071 47.92 182.047 47.424C181.039 46.928 180.239 46.192 179.647 45.216C179.055 44.224 178.759 43.016 178.759 41.592V31.248H182.119Z" fill="white"/>
<defs>
<filter id="filter0_d_1_79" x="0" y="0.493774" width="83.6505" height="79.0123" filterUnits="userSpaceOnUse" color-interpolation-filters="sRGB">
<feFlood flood-opacity="0" result="BackgroundImageFix"/>
<feColorMatrix in="SourceAlpha" type="matrix" values="0 0 0 0 0 0 0 0 0 0 0 0 0 0 0 0 0 0 127 0" result="hardAlpha"/>
<feOffset/>
<feGaussianBlur stdDeviation="12.5"/>
<feComposite in2="hardAlpha" operator="out"/>
<feColorMatrix type="matrix" values="0 0 0 0 0.0509804 0 0 0 0 0.12549 0 0 0 0 0.376471 0 0 0 1 0"/>
<feBlend mode="normal" in2="BackgroundImageFix" result="effect1_dropShadow_1_79"/>
<feBlend mode="normal" in="SourceGraphic" in2="effect1_dropShadow_1_79" result="shape"/>
</filter>
</defs>
</svg>
